<?xml version="1.0" encoding="UTF-8"?><svg id="a" xmlns="http://www.w3.org/2000/svg" viewBox="0 0 278.07 107"><defs><style>.c{fill:#fff;}</style></defs><path id="b" class="c" d="M0,100.45c0,3.61,2.41,5.35,6.15,5.35s6.02-1.74,6.02-5.35V5.35C12.17,1.74,9.76,0,6.15,0S0,1.74,0,5.35V100.45Zm86.8-30.23c4.15,0,6.69-2.54,6.69-7.36v-1.07c-1.34-17.52-12.3-32.77-31.83-32.77-21.8,0-33.84,16.18-33.84,39.32s12.71,38.65,34.64,38.65c17.39,0,25.14-8.83,29.43-17.65,.47-.71,.7-1.56,.67-2.41-.15-2.32-1.86-4.25-4.15-4.68-.91-.31-1.85-.49-2.81-.53-2.14,.03-4.04,1.35-4.82,3.34-3.21,7.09-8.56,11.9-18.19,11.9-14.44,0-22.6-10.3-22.87-26.75h47.08Zm-46.68-9.76c1.74-13.11,8.69-21.67,21.53-21.67s18.06,9.76,19.66,19.26v.67c0,1.2-.53,1.74-2.01,1.74H40.12Zm100.85,14.85c-1.74,4.55-4.28,14.04-5.48,18.99-1.07-4.82-3.74-13.78-5.35-18.32l-15.51-42.13c-.69-2.34-2.91-3.89-5.35-3.74-.91,.01-1.81,.15-2.68,.4-2.47,.52-4.25,2.69-4.28,5.22,.02,.73,.15,1.45,.4,2.14l24.61,62.46c1.75,4.45,6.78,6.63,11.22,4.88,2.19-.86,3.93-2.58,4.83-4.75l24.61-62.59c.35-.71,.54-1.48,.53-2.27-.09-2.52-1.93-4.64-4.41-5.08-.82-.25-1.68-.39-2.54-.4-2.45-.05-4.64,1.53-5.35,3.88l-15.25,41.33Zm96.17-5.08c4.15,0,6.69-2.54,6.69-7.36v-1.07c-1.34-17.52-12.31-32.77-31.83-32.77-21.8,0-33.84,16.18-33.84,39.32s12.71,38.65,34.64,38.65c17.39,0,25.15-8.83,29.42-17.65,.47-.71,.7-1.56,.67-2.41-.15-2.32-1.86-4.25-4.15-4.68-.91-.31-1.85-.49-2.81-.53-2.14,.03-4.04,1.35-4.81,3.34-3.21,7.09-8.56,11.9-18.19,11.9-14.44,0-22.6-10.3-22.87-26.75h47.08Zm-46.68-9.76c1.74-13.11,8.69-21.67,21.53-21.67s18.06,9.76,19.66,19.26v.67c0,1.2-.53,1.74-2.01,1.74h-39.19Zm78.38,26.88c-5.1,0-9.23,4.13-9.23,9.23,0,5.1,4.13,9.23,9.23,9.23,5.1,0,9.23-4.13,9.23-9.23,0-.04,0-.09,0-.13,.12-4.91-3.77-8.98-8.68-9.1-.18,0-.37,0-.55,0Z"/></svg>